<svg width="462" height="436" viewBox="0 0 462 436" fill="none" xmlns="http://www.w3.org/2000/svg">
<g filter="url(#filter0_f_80_12)">
<g filter="url(#filter1_f_80_12)">
<path d="M219.592 223.3C219.592 214.519 227.142 207.4 236.454 207.4C245.767 207.4 253.317 200.281 253.317 191.5C253.317 182.719 245.767 175.6 236.454 175.6C208.516 175.6 185.867 196.957 185.867 223.3C185.867 232.081 193.417 239.2 202.729 239.2C212.042 239.2 219.592 232.081 219.592 223.3Z" fill="url(#paint0_linear_80_12)" fill-opacity="0.2"/>
</g>
<g filter="url(#filter2_f_80_12)">
<path d="M118.417 228.6C118.417 164.203 173.78 112 242.075 112C310.37 112 365.733 164.203 365.733 228.6C365.733 292.997 310.37 345.2 242.075 345.2C173.78 345.2 118.417 292.997 118.417 228.6ZM242.075 143.8C192.407 143.8 152.142 181.767 152.142 228.6C152.142 275.433 192.407 313.4 242.075 313.4C291.743 313.4 332.008 275.433 332.008 228.6C332.008 181.767 291.743 143.8 242.075 143.8Z" fill="url(#paint1_linear_80_12)" fill-opacity="0.2"/>
</g>
<g filter="url(#filter3_f_80_12)">
<path d="M100.757 101.264C133.88 44.6932 194.467 6 264.558 6C371.581 6 455.667 95.4944 455.667 202.63C455.667 214.635 454.621 226.401 452.611 237.835C451.332 245.123 451.593 252.874 453.142 260.779C454.801 269.259 455.667 277.992 455.667 286.9C455.667 365.931 387.72 430 303.904 430C279.903 430 257.157 424.736 236.94 415.349C219.522 407.261 198.774 404.469 179.233 407.274C172.21 408.281 165.042 408.8 157.762 408.8C72.7009 408.8 6 338.764 6 255.1C6 200.595 34.0695 152.292 77.0262 124.921C87.0801 118.515 95.3542 110.491 100.757 101.264ZM264.558 37.8C208.319 37.8 158.27 68.8319 130.281 116.634C121.859 131.018 109.554 142.575 95.9084 151.27C62.4815 172.568 39.725 210.872 39.725 255.1C39.725 323.646 93.8176 377 157.762 377C163.335 377 168.809 376.601 174.159 375.834C200.164 372.103 227.924 375.715 251.837 386.82C267.524 394.102 285.182 398.2 303.904 398.2C369.095 398.2 421.942 348.369 421.942 286.9C421.942 279.938 421.265 273.137 419.977 266.55C417.85 255.691 417.312 244.176 419.34 232.639C421.047 222.92 421.942 212.891 421.942 202.63C421.942 110.137 350.002 37.8 264.558 37.8Z" fill="url(#paint2_linear_80_12)" fill-opacity="0.2"/>
</g>
</g>
<defs>
<filter id="filter0_f_80_12" x="0" y="0" width="461.667" height="436" filterUnits="userSpaceOnUse" color-interpolation-filters="sRGB">
<feFlood flood-opacity="0" result="BackgroundImageFix"/>
<feBlend mode="normal" in="SourceGraphic" in2="BackgroundImageFix" result="shape"/>
<feGaussianBlur stdDeviation="3" result="effect1_foregroundBlur_80_12"/>
</filter>
<filter id="filter1_f_80_12" x="179.867" y="169.6" width="79.45" height="75.6" filterUnits="userSpaceOnUse" color-interpolation-filters="sRGB">
<feFlood flood-opacity="0" result="BackgroundImageFix"/>
<feBlend mode="normal" in="SourceGraphic" in2="BackgroundImageFix" result="shape"/>
<feGaussianBlur stdDeviation="3" result="effect1_foregroundBlur_80_12"/>
</filter>
<filter id="filter2_f_80_12" x="112.417" y="106" width="259.317" height="245.2" filterUnits="userSpaceOnUse" color-interpolation-filters="sRGB">
<feFlood flood-opacity="0" result="BackgroundImageFix"/>
<feBlend mode="normal" in="SourceGraphic" in2="BackgroundImageFix" result="shape"/>
<feGaussianBlur stdDeviation="3" result="effect1_foregroundBlur_80_12"/>
</filter>
<filter id="filter3_f_80_12" x="0" y="0" width="461.667" height="436" filterUnits="userSpaceOnUse" color-interpolation-filters="sRGB">
<feFlood flood-opacity="0" result="BackgroundImageFix"/>
<feBlend mode="normal" in="SourceGraphic" in2="BackgroundImageFix" result="shape"/>
<feGaussianBlur stdDeviation="3" result="effect1_foregroundBlur_80_12"/>
</filter>
<linearGradient id="paint0_linear_80_12" x1="219.592" y1="175.6" x2="215.342" y2="238.825" gradientUnits="userSpaceOnUse">
<stop stop-color="#FFB190"/>
<stop offset="1" stop-color="#996A56"/>
</linearGradient>
<linearGradient id="paint1_linear_80_12" x1="242.075" y1="112" x2="226.492" y2="343.825" gradientUnits="userSpaceOnUse">
<stop stop-color="#FFB190"/>
<stop offset="1" stop-color="#996A56"/>
</linearGradient>
<linearGradient id="paint2_linear_80_12" x1="230.833" y1="6" x2="202.5" y2="427.5" gradientUnits="userSpaceOnUse">
<stop stop-color="#FFB190"/>
<stop offset="1" stop-color="#996A56"/>
</linearGradient>
</defs>
</svg>
