<svg width="369" height="353" viewBox="0 0 369 353" fill="none" xmlns="http://www.w3.org/2000/svg">
<g filter="url(#filter0_f_81_75)">
<path d="M357.821 202.885L325.982 84.0628C310.793 27.3745 248.738 -5.42835 187.653 10.9393C186.215 11.3247 184.882 12.0215 183.763 12.9715L9.81533 160.715C9.78914 160.737 9.76704 160.76 9.74085 160.783C9.6395 160.87 9.54314 160.962 9.44588 161.055C9.33221 161.162 9.22037 161.269 9.11352 161.38C9.03196 161.465 8.95359 161.551 8.87476 161.639C8.75993 161.768 8.64942 161.898 8.54277 162.032C8.47851 162.112 8.41515 162.193 8.35408 162.274C8.24217 162.425 8.13663 162.577 8.03565 162.732C7.9864 162.806 7.93671 162.88 7.88975 162.955C7.78168 163.131 7.68247 163.311 7.58759 163.492C7.5552 163.553 7.51963 163.613 7.48838 163.675C7.36817 163.918 7.25773 164.165 7.16094 164.416C7.14016 164.469 7.12575 164.525 7.10589 164.578C7.0351 164.773 6.9691 164.967 6.91287 165.165C6.88018 165.28 6.85499 165.397 6.82663 165.513C6.793 165.653 6.76006 165.793 6.7337 165.935C6.71033 166.062 6.69104 166.19 6.67381 166.319C6.65474 166.455 6.63863 166.592 6.62662 166.729C6.61575 166.856 6.60558 166.982 6.60063 167.109C6.59428 167.264 6.59476 167.419 6.59637 167.574C6.59804 167.682 6.59653 167.789 6.6023 167.898C6.63138 168.44 6.71482 168.981 6.85311 169.512C6.85831 169.531 6.86033 169.55 6.86554 169.569L38.7038 288.391C33.8 270.09 36.303 279.431 37.5529 284.096C38.8029 288.761 44.8679 304.848 44.8679 304.848L63.5367 341.284C65.4447 345.008 69.9437 346.851 74.285 345.687L355.656 270.294C359.997 269.131 362.972 265.285 362.763 261.107L360.713 220.218C357.058 200.038 357.531 201.805 356.281 197.14C355.031 192.476 359.655 214.353 357.821 202.885ZM34.4442 199.665C38.763 199.791 42.3099 201.004 46.5817 202.473C54.4344 205.173 64.2064 208.532 79.699 204.381C95.1926 200.23 101.976 192.433 107.427 186.169C112.254 180.623 115.74 176.615 125.321 174.048C134.902 171.481 139.926 173.208 146.879 175.598C154.732 178.298 164.505 181.657 179.999 177.506C195.492 173.354 202.275 165.558 207.726 159.294C212.553 153.748 216.04 149.74 225.621 147.173C235.207 144.604 240.234 146.331 247.193 148.72C249.598 149.546 252.194 150.438 255.078 151.155L264.24 185.349C267.485 197.461 280.743 204.469 293.794 200.972C306.845 197.475 314.822 184.777 311.576 172.666L302.414 138.472C304.553 136.408 306.356 134.338 308.025 132.42C310.995 129.01 313.464 126.183 317.147 123.913L339.614 207.764L56.9115 283.514L34.4442 199.665ZM194.328 27.2835C241.6 15.6854 289.089 39.0511 305.069 80.612L146.924 122.987C141.896 124.334 138.834 129.208 140.084 133.874C141.334 138.539 146.423 141.23 151.451 139.883L310.04 97.3891L312.499 106.568C303.05 110.866 297.941 116.704 293.668 121.609C291.207 124.437 289.082 126.878 286.299 128.931C283.286 131.155 281.918 134.806 282.827 138.2L293.369 177.543C294.118 180.339 292.278 183.269 289.265 184.076C286.253 184.883 283.194 183.266 282.445 180.47L271.903 141.127C270.994 137.733 267.984 135.255 264.263 134.835C260.826 134.449 257.764 133.397 254.219 132.179C246.364 129.481 236.589 126.125 221.092 130.277C205.598 134.429 198.816 142.224 193.365 148.489C188.538 154.035 185.051 158.043 175.47 160.61C165.889 163.178 160.865 161.45 153.912 159.06C146.059 156.36 136.287 153.001 120.793 157.152C105.299 161.304 98.5154 169.099 93.0657 175.364C88.2392 180.91 84.752 184.918 75.1709 187.485C65.5907 190.052 60.5665 188.325 53.6144 185.935C47.4651 183.82 40.1248 181.318 29.7951 182.318L27.3355 173.139L115.038 149.639C120.066 148.292 123.128 143.417 121.878 138.752C120.627 134.086 115.538 131.396 110.511 132.743L51.5678 148.537L194.328 27.2835ZM77.2244 326.792L63.433 299.875L342.147 225.194L343.662 255.4L77.2244 326.792Z" fill="url(#paint0_linear_81_75)" fill-opacity="0.2"/>
</g>
<defs>
<filter id="filter0_f_81_75" x="0.595337" y="0.728271" width="368.178" height="351.305" filterUnits="userSpaceOnUse" color-interpolation-filters="sRGB">
<feFlood flood-opacity="0" result="BackgroundImageFix"/>
<feBlend mode="normal" in="SourceGraphic" in2="BackgroundImageFix" result="shape"/>
<feGaussianBlur stdDeviation="3" result="effect1_foregroundBlur_81_75"/>
</filter>
<linearGradient id="paint0_linear_81_75" x1="177" y1="219.5" x2="357" y2="166" gradientUnits="userSpaceOnUse">
<stop stop-color="#FFB190"/>
<stop offset="1" stop-color="#996A56"/>
</linearGradient>
</defs>
</svg>
