<svg width="344" height="343" viewBox="0 0 344 343" fill="none" xmlns="http://www.w3.org/2000/svg">
<g filter="url(#filter0_f_81_89)">
<path d="M337.892 230.678C336.964 211.028 330.407 192.074 319.021 176.121C307.634 160.168 291.908 147.903 273.754 140.817L269.831 139.272C269.61 139.151 242.786 126.656 188.425 119.734C174.807 118.183 162.965 118.541 145.754 108.069H145.722V108.037C136.408 102.049 127.89 94.88 120.376 86.7053C127.129 77.9466 130.8 67.162 130.81 56.0575C130.81 55.3296 130.81 54.5378 130.741 53.6631L122.713 54.0528L130.741 53.6249C130.12 40.7892 124.641 28.6864 115.438 19.8212C106.234 10.9561 94.0115 6.00761 81.2992 6C80.4844 6 79.7011 5.99997 78.8864 6.05105C66.1993 6.68196 54.238 12.2199 45.478 21.5188C36.718 30.8177 31.8301 43.1654 31.826 56.0064C31.826 56.3193 31.826 56.5941 31.826 56.8941C24.1649 60.2547 17.6406 65.8023 13.0531 72.8568C8.46553 79.9113 6.01431 88.1658 6 96.6081C6 97.3743 6.03781 98.0702 6.06939 98.7024C6.59984 109.841 11.3495 120.346 19.3336 128.04C27.3177 135.734 37.9244 140.029 48.9552 140.032C49.6373 140.032 50.3003 140.032 50.9698 139.994C56.9206 139.687 62.7424 138.126 68.062 135.413C73.3816 132.699 78.0817 128.892 81.8613 124.236C90.8651 131.464 98.9557 139.784 105.951 149.009V149.047C118.785 166.995 118.904 179.363 121.273 193.487C125.942 220.833 133.7 247.548 144.396 273.106C151.811 291.951 164.648 308.114 181.247 319.505C197.846 330.895 217.444 336.99 237.506 337C239.104 337 240.734 336.962 242.319 336.891C268.087 335.66 292.397 324.451 310.211 305.589C328.024 286.728 337.975 261.66 338 235.582C338 233.915 337.937 232.275 337.892 230.678ZM50.2879 123.757C49.89 123.757 49.4475 123.795 48.9864 123.795C42.0794 123.785 35.4402 121.093 30.4417 116.274C25.4432 111.455 22.4681 104.878 22.1311 97.9042C22.1311 97.4062 22.093 96.9719 22.093 96.5952C22.1107 91.9597 23.304 87.4063 25.5586 83.3698C27.8132 79.3334 31.0539 75.949 34.9713 73.5396C37.7478 71.7423 40.8193 70.46 44.0413 69.7532C44.0413 69.7532 49.5804 68.7253 48.8099 63.8983H48.8415C48.331 61.8613 48.0221 59.7781 47.9194 57.6794C47.9194 57.0409 47.8812 56.4917 47.8812 56.0064C47.8812 55.0614 48.0706 54.1484 48.1464 53.229C48.7962 45.0745 52.3594 37.4378 58.1705 31.7442C63.9816 26.0506 71.6435 22.6892 79.7264 22.2877C80.3138 22.2557 80.832 22.2366 81.3247 22.2366C89.9169 22.2523 98.1749 25.6038 104.393 31.5985C110.611 37.5931 114.313 45.7732 114.736 54.4488C114.736 54.934 114.736 55.4573 114.736 56.0575C114.715 64.4469 111.595 72.5263 105.988 78.7113L103.841 80.7355C100.15 84.1514 95.7559 86.698 90.9752 88.1928V88.2825C88.3566 89.1224 85.6458 89.6326 82.9036 89.8019C82.4931 89.8019 82.0825 89.8018 81.6404 89.8401L79.6443 89.9488C75.2231 90.3128 75.8548 95.0949 75.8548 95.2418C75.8201 95.123 75.7969 95.0011 75.7854 94.8778V95.3248L75.7095 97.5469C75.5314 100.261 74.957 102.933 74.0044 105.477C73.6823 106.435 73.3728 107.392 72.937 108.318C72.4762 109.491 71.9227 110.625 71.2821 111.708C68.963 115.241 65.8542 118.172 62.2071 120.265C58.5599 122.358 54.4769 123.554 50.2879 123.757ZM89.7435 109.71C90.29 108.172 90.7479 106.603 91.1144 105.011L91.2975 104.966C93.9848 104.376 96.6192 103.563 99.1736 102.534C100.001 102.195 100.809 101.831 101.624 101.461C103.261 100.702 104.853 99.8491 106.393 98.9066C107.094 98.5043 107.846 98.2171 108.496 97.7893C114.59 104.26 121.177 110.237 128.195 115.667L127.741 116.108C125.151 118.425 122.637 120.782 120.206 123.233C119.643 123.814 119.094 124.421 118.532 125.015C116.58 127.039 114.654 129.069 112.803 131.183C112.715 131.266 112.639 131.355 112.57 131.425C105.593 123.529 97.9493 116.263 89.7246 109.71H89.7435ZM267.968 155.969C283.216 161.911 296.427 172.204 305.994 185.597C315.562 198.99 321.072 214.905 321.856 231.406C321.894 232.798 321.958 234.184 321.958 235.563C321.934 257.452 313.584 278.494 298.637 294.332C283.69 310.169 263.29 319.59 241.662 320.642C240.273 320.718 238.896 320.757 237.563 320.757C220.666 320.724 204.167 315.564 190.204 305.944C176.241 296.325 165.456 282.69 159.245 266.804C149.032 242.349 141.615 216.795 137.139 190.639C135.884 174.372 130.881 158.629 122.53 144.668C122.827 144.336 123.092 143.978 123.389 143.62C126.155 140.428 128.998 137.235 131.972 134.285C132.036 134.222 132.112 134.158 132.181 134.1C135.004 131.24 138.029 128.546 141.074 125.928C141.509 125.551 141.964 125.2 142.406 124.823C156.161 131.682 171.223 135.446 186.555 135.856C206.308 138.227 225.845 142.17 244.984 147.649C251.357 149.565 256.094 151.237 259.195 152.412C262.297 153.587 263.496 154.213 263.528 154.194L267.949 155.956L267.968 155.969Z" fill="url(#paint0_linear_81_89)" fill-opacity="0.2"/>
</g>
<defs>
<filter id="filter0_f_81_89" x="0" y="0" width="344" height="343" filterUnits="userSpaceOnUse" color-interpolation-filters="sRGB">
<feFlood flood-opacity="0" result="BackgroundImageFix"/>
<feBlend mode="normal" in="SourceGraphic" in2="BackgroundImageFix" result="shape"/>
<feGaussianBlur stdDeviation="3" result="effect1_foregroundBlur_81_89"/>
</filter>
<linearGradient id="paint0_linear_81_89" x1="301" y1="152" x2="-35.5" y2="82.5" gradientUnits="userSpaceOnUse">
<stop stop-color="#FFB190"/>
<stop offset="1" stop-color="#996A56"/>
</linearGradient>
</defs>
</svg>
