<svg width="383" height="419" viewBox="0 0 383 419" fill="none" xmlns="http://www.w3.org/2000/svg">
<g filter="url(#filter0_f_81_81)">
<path d="M134.035 7.90067C117.674 2.62229 100.868 20.3434 105.576 37.5143L121.416 98.3609L18.0377 261.031C18.0152 261.069 17.9929 261.107 17.9708 261.146C-6.99936 301.297 12.1083 355.151 55.4348 366.76L218.631 410.488C261.957 422.098 305.432 385.012 303.883 337.756C303.883 337.711 303.883 337.667 303.883 337.622L296.095 154.619C296.455 154.437 296.808 154.239 297.153 154.026L331.65 132.757C334.669 136.998 338.335 142.876 341.774 151.364C349.076 169.386 354.315 196.398 344.151 234.331C343.642 236.134 343.476 238.016 343.663 239.866C343.85 241.716 344.386 243.497 345.24 245.107C346.094 246.717 347.248 248.124 348.637 249.244C350.026 250.365 351.62 251.178 353.329 251.636C355.037 252.093 356.824 252.187 358.587 251.91C360.35 251.634 362.053 250.994 363.598 250.026C365.143 249.059 366.498 247.784 367.585 246.275C368.671 244.767 369.468 243.055 369.929 241.239C381.72 197.236 375.817 162.716 366.488 139.691C357.159 116.665 343.786 104.049 343.786 104.049C341.71 102.121 339.091 100.947 336.299 100.692C333.507 100.436 330.685 101.112 328.23 102.625L301.447 119.137L305.344 104.592C309.633 88.587 301.874 71.8369 287.421 65.8857C205.523 32.1664 157.08 15.3355 134.035 7.90067ZM133.668 37.9331C157.385 45.7168 200.033 60.4431 277.038 92.148C279.141 93.0138 280.215 95.2638 279.566 97.685L272.905 122.543L146.9 88.7803L133.668 37.9331ZM141.595 116.632L269.078 150.791L272.851 239.621L93.9126 191.674L141.595 116.632ZM78.0183 216.689L274.109 269.231L277.102 339.556C278.041 368.543 252.528 390.298 225.949 383.176L62.7531 339.448C36.1746 332.326 24.9569 300.729 40.2632 276.096L40.2679 276.078L78.0183 216.689Z" fill="url(#paint0_linear_81_81)" fill-opacity="0.2"/>
</g>
<defs>
<filter id="filter0_f_81_81" x="0.860596" y="0.953125" width="381.638" height="417.681" filterUnits="userSpaceOnUse" color-interpolation-filters="sRGB">
<feFlood flood-opacity="0" result="BackgroundImageFix"/>
<feBlend mode="normal" in="SourceGraphic" in2="BackgroundImageFix" result="shape"/>
<feGaussianBlur stdDeviation="3" result="effect1_foregroundBlur_81_81"/>
</filter>
<linearGradient id="paint0_linear_81_81" x1="124" y1="382" x2="215.5" y2="31.5" gradientUnits="userSpaceOnUse">
<stop stop-color="#FFB190"/>
<stop offset="1" stop-color="#996A56"/>
</linearGradient>
</defs>
</svg>
