<svg width="309" height="311" viewBox="0 0 309 311" fill="none" xmlns="http://www.w3.org/2000/svg">
<g clip-path="url(#clip0_85_16)">
<g filter="url(#filter0_f_85_16)">
<path d="M256.543 204.19L251.114 202.213C271.957 184.682 279.928 154.551 268.386 128.251L288.541 118.715C299.663 113.742 305.783 99.5926 300.07 87.2102C294.601 75.351 280.652 70.292 268.871 75.8444L242.459 88.2452C234.501 66.7425 217.654 49.753 195.979 41.8638C169.864 32.3588 140.85 37.5084 119.348 55.2379C91.2782 52.2808 63.7184 68.8764 53.6065 96.6588C49.7421 107.276 48.7799 118.449 50.6721 129.259L45.2431 127.283C41.1722 125.801 36.6609 127.927 35.1668 132.032C33.6728 136.137 35.7618 140.666 39.8327 142.148L48.3305 145.241L34.3125 220.042C32.1677 231.487 38.4885 242.661 49.3429 246.612L176.7 292.966C187.554 296.916 199.579 292.419 205.293 282.273L242.635 215.961L251.133 219.054C255.204 220.536 259.715 218.41 261.21 214.305C262.704 210.2 260.614 205.671 256.543 204.19ZM240.907 106.377C240.924 106.369 240.941 106.361 240.959 106.353L275.459 90.1545C279.386 88.303 284.001 89.9819 285.821 93.9265C287.801 98.2181 285.374 102.893 282.202 104.29C282.137 104.319 282.072 104.348 282.007 104.379L222.753 132.414C221.779 127.16 219.921 122.107 217.253 117.483L240.907 106.377ZM191.64 274.537C189.736 277.919 185.727 279.418 182.109 278.101L54.7527 231.747C51.1347 230.43 49.0276 226.706 49.7423 222.89L57.3686 182.198L211.955 238.462L191.64 274.537ZM219.823 224.492L60.3226 166.439L63.2759 150.68L227.69 210.522L219.823 224.492ZM232.969 195.609L68.8173 135.863C64.4976 125.012 64.3129 113.113 68.3487 102.025C80.0046 70.0002 120.386 60.5018 144.743 83.2933C147.912 86.2574 152.881 86.0611 155.841 82.8592C158.803 79.6558 158.636 74.6559 155.469 71.6927C150.63 67.1653 145.109 63.4806 139.17 60.7252C154.818 52.1439 173.473 50.5062 190.569 56.7284C208.276 63.1734 221.954 77.2243 228.146 94.9659L206.805 104.986C202.637 101.453 197.841 98.6543 192.686 96.7781C188.616 95.2966 184.104 97.4229 182.61 101.528C181.116 105.633 183.205 110.161 187.276 111.643C191.992 113.359 196.085 116.097 199.442 119.78C199.452 119.791 199.464 119.8 199.473 119.811C199.484 119.822 199.492 119.834 199.502 119.845C205.51 126.288 208.504 135.048 207.716 143.877C207.714 143.904 207.714 143.93 207.711 143.957C207.71 143.973 207.706 143.989 207.705 144.004C207.508 146.699 206.914 149.424 205.939 152.104C204.445 156.208 206.534 160.737 210.605 162.219C214.676 163.701 219.187 161.574 220.681 157.469C221.595 154.958 222.288 152.406 222.757 149.84L254.139 134.992C263.781 157.408 254.724 183.898 232.969 195.609Z" fill="url(#paint0_linear_85_16)" fill-opacity="0.3"/>
</g>
</g>
<defs>
<filter id="filter0_f_85_16" x="27.8966" y="31.167" width="280.35" height="269.223" filterUnits="userSpaceOnUse" color-interpolation-filters="sRGB">
<feFlood flood-opacity="0" result="BackgroundImageFix"/>
<feBlend mode="normal" in="SourceGraphic" in2="BackgroundImageFix" result="shape"/>
<feGaussianBlur stdDeviation="3" result="effect1_foregroundBlur_85_16"/>
</filter>
<linearGradient id="paint0_linear_85_16" x1="214.851" y1="48.8381" x2="78.3808" y2="247.198" gradientUnits="userSpaceOnUse">
<stop stop-color="#FFB190"/>
<stop offset="1" stop-color="#996A56"/>
</linearGradient>
<clipPath id="clip0_85_16">
<rect width="240.549" height="242.553" fill="white" transform="translate(82.9579 0.727539) rotate(20)"/>
</clipPath>
</defs>
</svg>
