<svg width="411" height="390" viewBox="0 0 411 390" fill="none" xmlns="http://www.w3.org/2000/svg">
<g filter="url(#filter0_f_81_61)">
<path d="M390.382 140.018H380.605C375.401 113.633 353.658 92.8553 326.241 88.2154C320.725 57.727 293.146 34.4817 260.058 34.4817C257.493 34.4817 254.933 34.6234 252.392 34.9062C243.108 18.6981 225.174 8.08862 205.5 8.08862C185.826 8.08862 167.892 18.6981 158.608 34.9062C156.066 34.6242 153.507 34.4817 150.941 34.4817C117.853 34.4817 90.2742 57.727 84.7581 88.2146C57.3403 92.8553 35.5983 113.634 30.3939 140.017H20.6176C13.6488 140.018 8 145.482 8 152.22V193.976V202.968C8 266.114 51.4029 319.635 110.87 337.115V369.71C110.87 376.448 116.519 381.912 123.487 381.912H287.513C294.482 381.912 300.131 376.448 300.131 369.71V337.115C359.598 319.636 403 266.115 403 202.968V193.976V152.22C403 145.482 397.351 140.018 390.382 140.018ZM96.372 111.648C103.341 111.648 108.99 106.184 108.99 99.4456C108.99 77.0799 127.81 58.8857 150.942 58.8857C154.913 58.8857 158.861 59.4311 162.676 60.5077C165.89 61.4134 169.344 61.0486 172.278 59.4922C175.213 57.9366 177.387 55.3141 178.324 52.2066C181.822 40.5989 192.997 32.4926 205.502 32.4926C218.007 32.4926 229.182 40.5997 232.679 52.2066C233.616 55.3149 235.789 57.9359 238.725 59.4922C241.659 61.0493 245.113 61.4127 248.327 60.5077C252.142 59.4318 256.09 58.8857 260.061 58.8857C283.194 58.8857 302.013 77.0799 302.013 99.4456C302.013 106.184 307.662 111.648 314.631 111.648C333.363 111.648 349.263 123.591 354.629 140.018H56.3736C61.7401 123.591 77.6388 111.648 96.372 111.648ZM274.896 357.507H136.104V342.194C141.632 342.815 147.251 343.146 152.948 343.146H258.051C263.749 343.146 269.368 342.815 274.895 342.194L274.896 357.507ZM258.051 318.743H152.949C88.0461 318.743 35.0421 268.539 33.2808 206.178H377.718C375.959 268.539 322.954 318.743 258.051 318.743ZM377.766 181.773H33.2345V164.422H377.765L377.766 181.773Z" fill="#FFB190" fill-opacity="0.2"/>
<path d="M205.5 58.9348C198.531 58.9348 192.882 64.3992 192.882 71.1372V71.978C192.882 78.716 198.531 84.1804 205.5 84.1804C212.469 84.1804 218.118 78.716 218.118 71.978V71.1372C218.118 64.3985 212.469 58.9348 205.5 58.9348Z" fill="#FFB190" fill-opacity="0.2"/>
<path d="M154.614 88.6228C147.645 88.6228 141.996 94.0872 141.996 100.825V101.666C141.996 108.404 147.645 113.868 154.614 113.868C161.582 113.868 167.231 108.404 167.231 101.666V100.825C167.231 94.0865 161.582 88.6228 154.614 88.6228Z" fill="#FFB190" fill-opacity="0.2"/>
<path d="M242.091 100.811C235.122 100.811 229.473 106.275 229.473 113.013V113.855C229.473 120.593 235.122 126.057 242.091 126.057C249.06 126.057 254.708 120.593 254.708 113.855V113.013C254.708 106.275 249.059 100.811 242.091 100.811Z" fill="#FFB190" fill-opacity="0.2"/>
</g>
<defs>
<filter id="filter0_f_81_61" x="0" y="-4" width="411" height="398" filterUnits="userSpaceOnUse" color-interpolation-filters="sRGB">
<feFlood flood-opacity="0" result="BackgroundImageFix"/>
<feBlend mode="normal" in="SourceGraphic" in2="BackgroundImageFix" result="shape"/>
<feGaussianBlur stdDeviation="4" result="effect1_foregroundBlur_81_61"/>
</filter>
</defs>
</svg>
