<svg width="28" height="28" viewBox="0 0 28 28" fill="none" xmlns="http://www.w3.org/2000/svg">
<path fill-rule="evenodd" clip-rule="evenodd" d="M24.1403 0H7.54103C7.30532 0 7.07926 0.0983642 6.91259 0.273454C6.74592 0.448543 6.65228 0.686015 6.65228 0.93363V2.58526C5.94084 2.05202 5.08852 1.76575 4.21456 1.76649C3.09725 1.76806 2.02614 2.23501 1.23608 3.06495C0.446031 3.8949 0.00152216 5.0201 2.91897e-05 6.19382V13.5406C-0.00331037 14.4731 0.279989 15.3818 0.807787 16.1316C1.33558 16.8813 2.07968 17.4321 2.92939 17.7019L4.326 18.1517C4.89311 18.334 5.15789 18.9259 5.45105 19.4106C5.64912 19.963 6.73435 21.5931 6.65298 21.884C6.65731 22.9305 6.99227 23.9459 7.60531 24.7708C8.21834 25.5957 9.07475 26.1834 10.0401 26.4417V28H11.8169H11.8251H22.8428H22.8346H24.6114V26.4432C26.5561 25.9253 27.9993 24.0721 27.9993 21.8706V17.2447L28 14.4446V6.39759L27.9993 2.91055V0.93363C27.9993 0.686015 27.9057 0.448543 27.739 0.273454C27.5723 0.0983642 27.3463 0 27.1105 0H26.2437H24.1403ZM3.44994 15.9169L4.84726 16.3659C5.57823 16.5986 6.21379 17.082 6.65228 17.739V6.19382C6.65153 5.51489 6.39446 4.86399 5.93746 4.38392C5.48046 3.90384 4.86085 3.63379 4.21456 3.63301C3.56826 3.63379 2.94865 3.90384 2.49165 4.38392C2.03465 4.86399 1.77758 5.51489 1.77683 6.19382V13.5399C1.775 14.0725 1.93683 14.5915 2.23826 15.0198C2.5397 15.448 2.96465 15.7627 3.44994 15.9169ZM26.5 23V17.2447V14.4579V2H8V23.0133L14.5 26.0067L21 26L26.5 23Z" fill="#FFB190"/>
</svg>
