<svg width="28" height="28" viewBox="0 0 28 28" fill="none" xmlns="http://www.w3.org/2000/svg">
<path d="M28 1.90367C28 3.15394 25.9874 3.80733 23.4966 3.80733C21.0058 3.80733 18.9932 3.15394 18.9932 1.90367C18.9932 0.653392 21.0058 0 23.4966 0C25.9874 0 28 0.653392 28 1.90367ZM26.0175 1.64191C25.37 1.43171 24.467 1.30771 23.4966 1.30771C22.5262 1.30771 21.6232 1.43171 20.9757 1.64191C20.7213 1.72447 20.522 1.81587 20.3917 1.90367C20.522 1.99146 20.7213 2.08287 20.9757 2.16543C21.6232 2.37562 22.5262 2.49962 23.4966 2.49962C24.467 2.49962 25.37 2.37562 26.0175 2.16543C26.2719 2.08287 26.4712 1.99146 26.6015 1.90367C26.4712 1.81587 26.2719 1.72447 26.0175 1.64191ZM25.3417 9.76215C24.8683 9.91581 24.2008 10.0074 23.4815 10.0074C22.7624 10.0074 22.095 9.91581 21.6217 9.76215C21.43 9.69993 21.2862 9.63218 21.204 9.57273C21.1392 9.27998 20.8782 9.06103 20.5662 9.06103C20.2054 9.06103 19.9129 9.35376 19.9129 9.71487C19.9129 10.7977 21.5068 11.3151 23.4815 11.3151C25.4564 11.3151 27.0504 10.7977 27.0504 9.71487C27.0504 9.35376 26.7579 9.06103 26.3971 9.06103C26.0851 9.06103 25.8241 9.27998 25.7593 9.57273C25.6771 9.63218 25.5333 9.69996 25.3417 9.76215Z" fill="#FFB190"/>
<path d="M21.2145 9.56957L20.3064 2.00465C20.2634 1.64612 19.9381 1.3904 19.5799 1.43346C19.2216 1.47653 18.9661 1.80211 19.0092 2.16064L19.9172 9.72556C19.9603 10.0841 20.2856 10.3398 20.6438 10.2967C21.002 10.2537 21.2575 9.9281 21.2145 9.56957ZM26.6783 2.00446L25.7683 9.56938C25.7251 9.92791 25.9805 10.2535 26.3388 10.2967C26.697 10.3398 27.0223 10.0842 27.0654 9.72569L27.9755 2.16076C28.0186 1.80224 27.7632 1.47663 27.405 1.43346C27.0468 1.3903 26.7214 1.64593 26.6783 2.00446ZM25.0699 19.3347C25.0699 15.3484 19.795 11.9771 13.1882 11.9771C6.58141 11.9771 1.30657 15.3484 1.30657 19.3347C1.30657 23.321 6.58141 26.6923 13.1882 26.6923C19.795 26.6923 25.0699 23.321 25.0699 19.3347ZM26.3764 19.3347C26.3764 24.1975 20.4271 28 13.1882 28C5.94937 28 0 24.1975 0 19.3347C0 14.4719 5.94937 10.6694 13.1882 10.6694C20.4271 10.6694 26.3764 14.4719 26.3764 19.3347Z" fill="#FFB190"/>
<path d="M21.4884 19.2125C21.4884 16.8195 17.8201 14.7046 13.1881 14.7046C8.55644 14.7046 4.88812 16.8195 4.88812 19.2125C4.88812 21.6056 8.55647 23.7204 13.1881 23.7204C17.82 23.7204 21.4884 21.6056 21.4884 19.2125ZM22.795 19.2125C22.795 22.521 18.4462 25.0281 13.1881 25.0281C7.9303 25.0281 3.58154 22.521 3.58154 19.2125C3.58154 15.9041 7.9303 13.397 13.1881 13.397C18.4462 13.397 22.795 15.9041 22.795 19.2125Z" fill="#FFB190"/>
<path d="M9.75894 23.6429C10.7335 19.8365 13.4285 16.6801 17.0154 15.1069C17.3459 14.9619 17.4964 14.5763 17.3516 14.2456C17.2068 13.9148 16.8215 13.7642 16.491 13.9091C12.5372 15.6433 9.56793 19.1209 8.49326 23.3183C8.40369 23.6681 8.61445 24.0244 8.96393 24.114C9.31341 24.2037 9.66937 23.9927 9.75894 23.6429Z" fill="#FFB190"/>
<path d="M12.4911 16.9802C10.0178 16.2026 7.36848 16.1229 4.85253 16.7477C4.50235 16.8347 4.28892 17.1893 4.37584 17.5398C4.46276 17.8903 4.81706 18.1039 5.16725 18.0169C7.4505 17.4498 9.85547 17.5223 12.0996 18.2278C12.4438 18.336 12.8105 18.1444 12.9186 17.7999C13.0267 17.4554 12.8354 17.0884 12.4911 16.9802H12.4911Z" fill="#FFB190"/>
</svg>
