<svg width="40" height="39" viewBox="0 0 40 39" fill="none" xmlns="http://www.w3.org/2000/svg">
<path d="M15.0046 4.44459C14.3971 2.96814 12.9263 2 11.2908 2H5.78937C3.69655 2 2 3.64908 2 5.68381C2 22.979 16.4212 37 34.2101 37C36.3028 37 37.999 35.3503 37.999 33.3157L38 27.9661C38 26.3757 37.0044 24.9462 35.4859 24.3555L30.213 22.3056C28.8491 21.7752 27.2959 22.014 26.1671 22.9284L24.8064 24.0319C23.2172 25.3195 20.8787 25.2171 19.4159 23.7949L15.5841 20.066C14.1212 18.6437 14.0131 16.372 15.3375 14.8269L16.4722 13.5039C17.4128 12.4066 17.6606 10.8961 17.115 9.5699L15.0046 4.44459Z" stroke="#FFB190" stroke-width="3" stroke-linecap="round" stroke-linejoin="round"/>
</svg>
