<svg width="36" height="36" viewBox="0 0 36 36" fill="none" xmlns="http://www.w3.org/2000/svg">
<path d="M18 0C27.7726 0 35.7263 7.78801 35.9931 17.4962L36 18V19.8C36 23.7113 33.2594 27 29.7 27C27.5885 27 25.7651 25.8426 24.6311 24.0845C22.9871 25.8764 20.6247 27 18 27C13.0294 27 9 22.9706 9 18C9 13.0294 13.0294 9 18 9C22.8398 9 26.7873 12.8202 26.9917 17.6096L27 18V19.8C27 21.8534 28.2888 23.4 29.7 23.4C31.0406 23.4 32.2708 22.0042 32.3905 20.1041L32.4 19.8V18C32.4 10.0471 25.9529 3.6 18 3.6C10.0471 3.6 3.6 10.0471 3.6 18C3.6 25.9529 10.0471 32.4 18 32.4C20.0936 32.4 22.1207 31.9541 23.9805 31.1037C24.8846 30.6903 25.9526 31.0881 26.366 31.9922C26.7794 32.8963 26.3816 33.9643 25.4775 34.3777C23.1502 35.4418 20.6128 36 18 36C8.05887 36 0 27.9411 0 18C0 8.05887 8.05887 0 18 0ZM18 12.6C15.0177 12.6 12.6 15.0177 12.6 18C12.6 20.9823 15.0177 23.4 18 23.4C20.9823 23.4 23.4 20.9823 23.4 18C23.4 15.0177 20.9823 12.6 18 12.6Z" fill="#FFB190"/>
</svg>
