<svg width="28" height="28" viewBox="0 0 28 28" fill="none" xmlns="http://www.w3.org/2000/svg">
<path d="M4.14997 25.5882L3.45972 21.4458H24.5403L23.85 25.5882C23.85 25.5883 23.85 25.5883 23.85 25.5883C23.6891 26.5528 22.866 27.2501 21.8881 27.2501H6.11192C5.134 27.2501 4.31089 26.5529 4.14999 25.5883C4.14999 25.5883 4.14998 25.5882 4.14997 25.5882Z" stroke="#FFB190" stroke-width="1.5"/>
<path d="M2.71065 16.7123L2.63267 16.05H1.9658H0.935272C0.924471 16.0421 0.905433 16.0245 0.880051 15.9886C0.814266 15.8955 0.75 15.7277 0.75 15.5077C0.75 15.2875 0.814272 15.1198 0.880043 15.0267C0.905421 14.9908 0.924455 14.9733 0.935252 14.9653H27.0647C27.0755 14.9733 27.0946 14.9908 27.12 15.0267C27.1857 15.1198 27.25 15.2875 27.25 15.5077C27.25 15.7277 27.1857 15.8955 27.1199 15.9886C27.0946 16.0245 27.0755 16.0421 27.0647 16.05H26.0342H25.3673L25.2893 16.7123L25.063 18.6346H2.937L2.71065 16.7123ZM0.94541 16.0558C0.945363 16.056 0.943642 16.0554 0.94039 16.0534C0.943832 16.0545 0.945458 16.0555 0.94541 16.0558ZM0.945385 14.9596C0.945433 14.9598 0.943807 14.9608 0.940365 14.9619C0.943617 14.9599 0.945338 14.9594 0.945385 14.9596ZM27.0546 14.9596C27.0547 14.9594 27.0564 14.9599 27.0596 14.9619C27.0562 14.9608 27.0546 14.9598 27.0546 14.9596ZM27.0546 16.0558C27.0545 16.0555 27.0562 16.0545 27.0596 16.0534C27.0564 16.0554 27.0546 16.056 27.0546 16.0558Z" stroke="#FFB190" stroke-width="1.5"/>
<path d="M26.665 4.14064L26.6591 4.14635L26.6533 4.15219L24.8226 5.98816L24.3038 6.50854L24.8135 7.03791C25.9818 8.25133 26.6412 9.85376 26.6412 11.5652C26.6412 11.9278 26.6084 12.2868 26.5475 12.6413H1.4523C1.39136 12.2868 1.35864 11.9278 1.35864 11.5652C1.35864 8.54373 3.42816 5.92619 6.32838 5.20824L6.6331 5.13281L6.79324 4.86281C8.30446 2.31476 11.0299 0.75 14 0.75C16.4635 0.75 18.7744 1.83063 20.3601 3.68372L20.8864 4.29869L21.4595 3.72721L23.8548 1.33896L23.8553 1.33847C24.6278 0.566909 25.8868 0.566018 26.6603 1.33909C27.4703 2.15006 27.3906 3.44429 26.665 4.14064ZM18.8079 6.8319L18.225 7.41279L18.8573 7.93942C19.2678 8.28127 19.6162 8.69015 19.8883 9.14873L20.3817 9.98032L21.0644 9.29556L26.4197 3.92422L26.4227 3.92146L26.4259 3.9185L26.4338 3.91103C27.0401 3.33338 27.1102 2.24952 26.4296 1.56988C25.7832 0.922087 24.7328 0.923385 24.0863 1.56899C23.9239 1.73093 23.3712 2.28196 22.6803 2.97089C21.1919 4.45492 19.0618 6.57883 18.8079 6.8319ZM26.4255 3.91874L26.4245 3.91969C26.4266 3.91768 26.4262 3.91814 26.4255 3.91874Z" stroke="#FFB190" stroke-width="1.5"/>
</svg>
