<svg width="30" height="27" viewBox="0 0 30 27" fill="none" xmlns="http://www.w3.org/2000/svg">
<path d="M22.6712 26.6662C21.9162 26.6736 21.6966 26.1493 21.3132 25.7874C20.9562 25.3952 20.6211 24.984 20.3094 24.5555C19.5515 24.0971 18.962 23.4711 18.0066 23.2076C17.938 23.2173 17.9016 23.195 17.8889 23.1491C16.355 23.0414 14.8147 23.061 13.284 23.2076C12.3689 23.2882 11.3623 23.2776 10.356 23.2666C9.77108 23.2607 9.18645 23.2543 8.61992 23.2666C7.98517 23.2036 7.35442 23.1059 6.73054 22.9738C6.58497 22.8454 6.31037 22.8439 6.14023 22.7394C5.97253 22.6418 5.79428 22.5632 5.60886 22.5051C5.30142 22.2831 4.919 22.1348 4.6643 21.8607C4.05028 21.4463 3.47699 20.9754 2.95204 20.4543C2.39229 19.9765 1.86008 19.4679 1.35795 18.9308C1.16842 18.9821 1.23565 18.7791 1.12188 18.755C1.00138 18.7375 1.00604 18.5966 0.885803 18.5789C0.817165 18.4067 0.692475 18.2621 0.53156 18.1683C0.310271 17.8613 0.13155 17.5262 0.000195934 17.172C-0.0124741 15.8118 0.592324 15.0644 0.944498 14.0666C1.17437 13.611 1.28323 13.0353 1.53507 12.6013C1.51309 12.2479 1.71995 12.1212 1.77115 11.8399C1.85676 11.7479 1.93566 11.6499 2.00723 11.5468C2.14556 11.5283 2.22882 11.4541 2.42094 11.488C2.43051 11.4195 2.5285 11.4387 2.59806 11.4292C3.51366 11.3887 3.59278 12.2595 4.19215 12.6013C4.64827 13.0471 5.08939 13.5078 5.54991 13.949C6.08541 14.2377 6.55523 14.5924 7.08505 14.8868C7.38976 14.9786 7.68597 15.0962 7.97039 15.2384C8.10925 15.5107 8.49452 15.5387 8.73783 15.707C8.82161 15.7019 8.90513 15.6975 8.91495 15.7658C10.2357 16.0369 11.5808 16.1745 12.9295 16.1765C13.9685 16.0738 14.7693 15.7366 15.8816 15.7076C16.9341 15.5272 18.0018 15.4487 19.0696 15.4732C19.1422 15.5967 19.4251 15.511 19.4833 15.649C19.6283 15.6568 19.7697 15.6968 19.897 15.7661C20.1336 15.8828 20.3691 16.0006 20.6057 16.1179C21.0264 16.4033 21.526 16.6104 21.8453 16.9967C22.1238 17.0919 22.2557 17.3324 22.4354 17.5244C22.6598 17.6527 22.7645 17.9011 23.0262 17.9933C23.0296 18.1652 23.2072 18.166 23.2623 18.2864C23.3993 18.3259 23.4203 18.4811 23.5573 18.5207C23.684 18.7465 23.9253 18.8587 24.0887 19.0483C24.6857 19.3933 25.1623 19.8581 25.8009 20.1612C26.3698 20.5338 26.9772 20.869 27.1587 21.6264C27.1495 21.784 27.1081 21.9381 27.037 22.0793C26.9659 22.2205 26.8665 22.3458 26.745 22.4476C26.6889 22.7813 26.2762 22.7636 26.1544 23.0336C25.7333 23.3987 25.3568 23.8116 25.0327 24.2639C24.6097 24.6445 24.5202 25.3573 24.0292 25.6701C23.9444 25.9781 23.6313 26.0566 23.4978 26.3151C23.3957 26.4256 23.2715 26.514 23.1332 26.5745C22.9948 26.635 22.8454 26.6664 22.6942 26.6667L22.6712 26.6662ZM15.5863 20.7479C16.1264 20.7913 16.6605 20.8894 17.1804 21.0407C17.5572 21.2917 18.2018 21.2768 18.5382 21.5681C18.986 21.6812 19.4071 21.8802 19.7778 22.154C20.0258 22.2208 20.1605 22.3994 20.3684 22.5056C20.5377 22.6501 20.788 22.7145 20.8997 22.9163C21.2805 23.1543 21.6364 23.4294 21.9622 23.7375C22.372 23.956 22.5828 24.372 23.0252 24.5588C23.1203 24.2434 23.4565 24.1667 23.6152 23.9146C23.549 23.6485 23.3034 23.5599 23.1434 23.387C22.9414 23.2353 22.7539 23.0695 22.5528 22.9183C22.2407 22.5636 21.9032 22.2349 21.6082 21.8635C21.1622 21.603 20.8651 21.1942 20.3671 20.9847C19.9668 20.6786 19.4652 20.4732 19.068 20.1635C18.1609 19.8497 17.234 19.5954 16.2933 19.402C15.5932 19.3698 14.8916 19.3855 14.1937 19.4492C13.4001 19.5315 12.6003 19.5353 11.806 19.4605C10.4312 19.4073 9.06577 19.2109 7.73225 18.8746C7.15046 18.6906 6.55859 18.5153 6.02025 18.2889C5.77823 18.1385 5.41287 18.1093 5.25281 17.8783C4.92675 17.8108 4.77937 17.567 4.48537 17.4676C3.53177 16.8785 2.65914 16.1691 1.88932 15.3572C1.88492 15.3521 1.87199 15.3544 1.85906 15.3572C1.84614 15.3601 1.83528 15.3613 1.8301 15.3572C1.68349 15.6026 1.62532 15.9349 1.47612 16.1785C1.57515 16.4901 1.842 16.6356 2.00748 16.8817C2.24977 17.0711 2.38319 17.3694 2.65676 17.5264C2.71778 17.6804 2.89128 17.7238 2.95204 17.878C3.11856 17.9276 3.11469 18.1465 3.30629 18.1711C3.4986 18.4087 3.71639 18.6248 3.95582 18.8156C4.86917 19.3612 5.81553 19.8504 6.7895 20.2805C7.75268 20.7507 8.7399 21.197 10.273 21.1018C10.7968 20.8737 11.3557 20.7348 11.926 20.6911C12.3602 20.7011 12.8103 20.6958 13.2602 20.6911C13.5245 20.6881 13.789 20.685 14.0502 20.685C14.563 20.6782 15.0758 20.6988 15.5863 20.7468V20.7479ZM19.5425 18.931C20.0166 19.2352 20.5096 19.5095 21.0184 19.7523C21.1935 19.9694 21.5257 20.0303 21.6679 20.2795C21.9746 20.366 22.0902 20.6424 22.3767 20.7486C22.7104 21.1384 23.065 21.51 23.4389 21.862C23.6388 22.016 23.8133 22.1936 24.0295 22.3306C24.076 22.4605 24.2363 22.4774 24.3248 22.5652C24.3328 22.6016 24.3503 22.6354 24.3754 22.6631C24.4006 22.6909 24.4326 22.7117 24.4683 22.7235C24.5039 22.7353 24.5421 22.7377 24.579 22.7304C24.6159 22.7232 24.6503 22.7066 24.6787 22.6822C25.0692 22.3073 24.6162 21.7372 24.3248 21.5101C24.0866 21.1018 23.7484 20.7915 23.4973 20.3965C22.7035 19.7014 21.9541 18.9577 21.2537 18.1698C20.8467 17.9099 20.4917 17.5978 20.0728 17.3486C19.627 17.0954 19.1509 16.8987 18.6558 16.7629C16.5984 16.7326 14.9291 17.0875 13.2243 17.4073C11.1063 17.4001 9.09388 17.2882 7.67485 16.5873C6.94768 16.2738 6.23808 15.9216 5.54913 15.5323C5.22023 15.3316 4.88021 15.1416 4.54562 14.9461C4.43857 14.799 4.20172 14.7798 4.1319 14.5947C3.87954 14.5714 3.84205 14.3353 3.60054 14.3016C3.3836 14.0288 3.11572 13.8063 2.89206 13.5402C2.63016 13.7845 2.42814 14.0851 2.30148 14.4189C2.44809 14.5473 2.67098 14.5986 2.71519 14.8296C2.91559 14.904 2.93886 15.1547 3.18708 15.1812C3.39394 15.5223 3.80766 15.6601 4.07269 15.9429C4.46753 16.0984 4.75325 16.3615 5.13542 16.5291C5.47777 16.7445 5.83244 16.9401 6.19763 17.1148C7.49326 17.5857 8.84119 17.9006 10.2125 18.0525C10.7022 18.1113 11.2258 18.1996 11.7476 18.2281C12.5262 18.2539 13.3057 18.2327 14.0817 18.1647C14.9349 18.0895 15.7922 18.0716 16.6478 18.1111C16.7546 18.1732 16.8807 18.1941 17.002 18.1696C17.8654 18.4075 18.7099 18.6636 19.5425 18.931ZM11.5669 15.0629C11.4309 15.0711 11.2945 15.0711 11.1586 15.0629C11.1539 14.9815 11.0551 14.9925 10.959 15.0038C10.9077 15.0135 10.8551 15.0135 10.8038 15.0038C10.8098 14.9235 10.7247 14.934 10.6396 14.9445C10.5964 14.9536 10.5517 14.9536 10.5085 14.9445C10.4933 14.8232 10.25 14.9291 10.2132 14.8278C10.1903 14.8324 10.1666 14.8317 10.144 14.826C10.1213 14.8202 10.1003 14.8094 10.0824 14.7944C10.06 14.7757 10.0329 14.7634 10.0039 14.7588C9.97497 14.7543 9.94533 14.7577 9.91821 14.7687C9.84064 14.6517 9.65602 14.6384 9.5045 14.5929C9.13669 14.3581 8.78193 14.1038 8.44177 13.8309C8.15889 13.5266 7.88429 13.2127 7.61434 12.8939C7.12298 12.1388 6.76376 11.3067 6.55187 10.4327C6.47699 9.94501 6.49709 9.44762 6.61108 8.96748C6.64178 8.73822 6.72233 8.51832 6.84716 8.32303C6.96714 8.14877 7.02971 7.9183 7.2014 7.79537C7.2632 7.56438 7.49385 7.49945 7.49643 7.20944C7.67485 7.1132 7.59081 6.75646 7.73251 6.62351C7.69772 5.93661 7.53775 5.26166 7.26036 4.63141C7.11251 4.35102 6.99381 4.05641 6.90611 3.75214C6.81412 3.40823 6.7743 3.05263 6.78795 2.69706C6.78045 2.59235 6.86035 2.57387 6.84716 2.463C6.91214 1.98975 7.14182 1.55395 7.49643 1.23109C7.54246 0.964174 7.81525 0.92311 7.91015 0.70419C8.13174 0.611283 8.26025 0.426755 8.50046 0.352071C8.87844 0.141187 9.30846 0.0398184 9.74161 0.0594926C9.81013 0.068732 9.84659 0.0464026 9.85951 0.000719323C11.6804 -0.0293085 12.5458 0.889234 14.051 1.17283H14.9953C16.0854 1.00498 16.9896 0.652092 18.1834 0.586904C18.1992 0.504776 18.3091 0.516325 18.4193 0.527617C18.478 0.53759 18.5381 0.53759 18.5969 0.527617C18.6624 0.538069 18.7295 0.526603 18.7877 0.495023C18.8558 0.458458 18.9354 0.44927 19.0101 0.469359C19.097 0.466279 19.1882 0.469359 19.2795 0.469359C19.4867 0.489367 19.6959 0.46932 19.8954 0.410329H21.7848C24.09 0.603072 26.0034 1.18438 27.5116 2.16862C28.617 2.98502 29.514 4.00955 29.9321 5.50863C29.9935 6.07287 30.0133 6.6408 29.9913 7.2079C29.9083 7.69091 29.7694 8.16282 29.5776 8.61433C29.3816 9.02496 29.302 9.55161 29.046 9.90347C29.0395 10.1119 28.828 10.1165 28.8689 10.3726C28.3055 11.0959 27.6941 11.7811 27.0387 12.4235C26.6385 12.5734 26.4026 12.8855 25.976 13.0092C25.6372 13.2381 25.2558 13.3974 24.8541 13.4778C24.3484 13.5745 23.8308 13.5943 23.3192 13.5366C22.6962 13.4349 22.0837 13.278 21.489 13.0677C20.8426 12.9668 20.471 12.5931 19.7181 12.5988C19.2927 12.6197 18.8825 12.7623 18.5369 13.0094C18.3652 13.1393 18.1611 13.2204 17.9466 13.244C17.6984 13.2512 17.6637 13.4711 17.4152 13.4781C17.123 13.716 16.6755 13.7986 16.4114 14.0642C16.2439 14.1623 16.0657 14.2409 15.8801 14.2986C15.7364 14.4166 15.5775 14.5152 15.4077 14.5917C14.7075 14.7564 14.0212 14.9348 13.2825 15.0603H12.694C12.6275 15.0705 12.5598 15.0705 12.4933 15.0603C12.371 15.0487 12.2487 15.0372 12.2216 15.1196C12.0102 15.052 11.7868 15.0327 11.5669 15.0629ZM11.6902 12.4848C11.9064 12.5051 11.9607 12.686 12.0447 12.8367C12.0605 13.236 11.6607 13.494 11.7494 13.7742C13.2822 13.831 14.4127 13.4868 15.5277 13.1298C16.0448 12.9016 16.5878 12.6973 17.122 12.4848C17.5735 12.1777 18.047 11.9036 18.5387 11.6648C18.7632 11.5943 19.0041 11.5401 19.2472 11.4888C19.3344 11.4831 19.4219 11.4831 19.5091 11.4888C19.6604 11.5155 19.8164 11.495 19.9554 11.43C19.9601 11.5114 20.0589 11.5003 20.1561 11.489C20.2069 11.4795 20.2591 11.4795 20.3099 11.489C20.3257 11.5712 20.4361 11.5596 20.546 11.5481C20.6046 11.5381 20.6645 11.5381 20.7231 11.5481C20.9887 11.64 21.2697 11.6798 21.5506 11.6654C22.0765 11.7907 22.6088 11.8885 23.1452 11.9584H24.6798C25.2661 11.7116 25.821 11.3967 26.3328 11.0204C26.7655 10.5643 27.1605 10.0743 27.514 9.5552C27.9564 9.11556 28.1772 8.45546 28.5175 7.91471C28.5559 7.55545 28.6351 7.20167 28.7538 6.86014V6.03887C28.6699 5.79119 28.6104 5.53599 28.5762 5.27688C28.2838 4.72925 27.9272 4.21787 27.5137 3.75342C27.1357 3.52244 26.8673 3.18264 26.4507 2.99169C26.0988 2.71605 25.6127 2.57361 25.2096 2.34699C24.7253 2.18412 24.2327 2.04705 23.7337 1.93636C23.2092 1.80504 22.6769 1.70706 22.1398 1.64301C21.8237 1.65753 21.5069 1.63782 21.195 1.58424H19.9539C19.052 1.68535 18.0632 1.69998 17.2389 1.87733C16.2647 1.81669 15.2872 1.91571 14.3455 2.17042C13.6553 2.15194 13.1439 1.95663 12.4566 1.9361C11.8761 1.63178 11.2618 1.39562 10.6262 1.23237C9.14793 1.09327 8.33963 1.61914 7.96962 2.58029C7.91092 3.47855 8.38049 3.85223 8.50124 4.5729C8.70243 4.74055 8.84686 4.96552 8.91495 5.21734C9.0975 5.62259 9.0158 6.28987 9.03312 6.8586C8.96408 6.86835 8.96874 6.95125 8.97391 7.03441C8.56743 8.05638 7.60348 8.52502 7.61615 9.9643C7.90265 9.89731 7.90834 9.55109 8.08856 9.37837C8.16046 9.26172 8.25481 9.16028 8.36621 9.07982C8.47761 8.99937 8.60389 8.94149 8.73783 8.90947C9.28859 9.2367 8.70939 9.90732 8.62018 10.3159C8.48245 10.5196 8.36378 10.7354 8.26568 10.9606C8.11623 11.1146 8.0808 11.5866 8.32489 11.6638C8.50974 11.2753 8.72692 10.9029 8.97417 10.5502C9.2361 10.2641 9.46726 9.69789 9.97794 9.84675C10.0265 9.96999 10.0464 10.1025 10.0362 10.2345C10.0259 10.3664 9.98578 10.4944 9.91873 10.6087C9.7429 10.7668 9.71963 11.0751 9.56448 11.2532C9.46638 11.4783 9.34781 11.6941 9.21024 11.8979C9.17766 12.1976 8.93719 12.2913 8.91495 12.6011C9.11586 12.6755 9.13862 12.926 9.38736 12.9527C9.5266 12.7707 9.64547 12.5743 9.74187 12.3668C9.98104 12.2918 9.97458 11.9723 10.2732 11.9561C10.674 12.4209 10.175 12.9204 10.0958 13.4211C10.3507 13.5591 10.6334 13.6392 10.9233 13.6554C10.9689 13.4113 11.0483 13.1747 11.1594 12.9522C11.3507 12.8164 11.3435 12.483 11.6721 12.483L11.6902 12.4848ZM14.1696 9.49668C14.1566 9.38906 14.1751 9.27998 14.2231 9.18261C14.2711 9.08524 14.3465 9.00374 14.4401 8.94795C14.5338 8.89215 14.6417 8.86446 14.7508 8.86819C14.86 8.87193 14.9657 8.90695 15.0552 8.96902C15.23 9.39531 15.0436 9.86728 14.6415 9.90655C14.5322 9.88869 14.43 9.84085 14.3466 9.76842C14.2632 9.696 14.202 9.60188 14.1696 9.49668ZM19.0698 9.20359C19.076 9.123 18.9907 9.13379 18.9054 9.14456C18.8627 9.15322 18.8187 9.15322 18.7761 9.14456C18.5718 9.03668 18.3532 8.95772 18.1268 8.90999C17.814 8.72021 17.5178 8.50463 17.2415 8.26554C16.9937 8.00325 16.8143 7.67346 16.5917 7.38678C16.5213 6.9877 16.3517 6.6869 16.3556 6.21442C16.4095 5.80084 16.6208 5.42341 16.9462 5.15959C17.0633 4.74896 17.3857 4.54159 17.5954 4.22232C18.0157 3.88383 18.4701 3.58934 18.9514 3.34356C19.2207 3.22886 19.4971 3.13114 19.7788 3.05098C19.9322 3.00478 19.9965 3.05098 20.1925 2.9922C20.2183 2.97983 20.239 2.95921 20.2515 2.93369C20.3104 2.92736 20.3699 2.92831 20.4286 2.93651C20.4792 2.95095 20.5325 2.95289 20.584 2.94215C20.6354 2.93141 20.6835 2.90833 20.7239 2.87492C23.1545 2.7294 24.7695 3.39129 25.5062 4.92604C25.6176 5.28609 25.6577 5.6642 25.6241 6.03938C25.5539 6.45207 25.37 6.83742 25.0927 7.15272C24.8787 7.48114 24.642 7.7944 24.3842 8.09025C23.2801 8.55735 22.198 9.04575 20.7828 9.20385L19.0698 9.20359ZM20.546 4.04677C20.3133 4.07243 20.0079 4.21333 19.8375 4.22283C19.4978 4.24182 19.1564 4.47948 18.893 4.57444C18.7084 5.12332 18.6878 5.71348 18.8337 6.2737C18.8412 6.29783 18.9336 6.31374 18.893 6.39099C19.6563 7.29336 21.2891 7.33289 22.9075 7.3873C23.5715 7.01105 24.2981 6.69717 24.5016 5.86358V5.39468C24.3395 4.87959 23.8392 4.52208 23.2605 4.28135C22.6781 4.07503 22.0621 3.97842 21.444 3.99647C21.1439 3.99634 20.8442 4.0133 20.546 4.04677ZM10.9815 8.44161C10.9666 8.40135 10.9431 8.36479 10.9125 8.33448C10.882 8.30416 10.8451 8.28081 10.8046 8.26606C10.7963 7.93421 10.7787 7.58569 10.9815 7.44479C11.1516 7.32724 11.3264 7.4299 11.5718 7.56207C11.7099 7.88802 11.6204 8.35434 11.336 8.44083L10.9815 8.44161ZM13.2843 7.15246C13.3002 6.75399 13.4691 6.37666 13.7564 6.0979C13.8123 6.05592 13.8769 6.0269 13.9455 6.01297C14.0141 5.99903 14.085 6.00054 14.153 6.01738C14.221 6.03422 14.2843 6.06596 14.3382 6.11027C14.3922 6.15459 14.4355 6.21034 14.4649 6.27344C14.4406 6.85449 14.2775 7.29798 13.8744 7.50535C13.8509 7.50782 13.8273 7.50911 13.8038 7.5092C13.5111 7.50792 13.4268 7.30157 13.2843 7.15246Z" fill="#FFB190"/>
</svg>
